<?xml version="1.0" encoding="UTF-8"?>
<!DOCTYPE svg PUBLIC "-//W3C//DTD SVG 1.1//EN" "http://www.w3.org/Graphics/SVG/1.1/DTD/svg11.dtd">
<svg xmlns="http://www.w3.org/2000/svg" version="1.1" width="16px" height="16px" style="shape-rendering:geometricPrecision; text-rendering:geometricPrecision; image-rendering:optimizeQuality; fill-rule:evenodd; clip-rule:evenodd" xmlns:xlink="http://www.w3.org/1999/xlink">
<g><path style="opacity:0.961" fill="#f8b700" d="M 5.5,1.5 C 3.74844,3.24595 2.41511,5.24595 1.5,7.5C -0.162551,3.79323 1.17078,1.79323 5.5,1.5 Z"/></g>
<g><path style="opacity:1" fill="#f2a015" d="M 5.5,1.5 C 6.49162,1.32842 7.15829,1.66175 7.5,2.5C 6.5,2.83333 5.83333,3.5 5.5,4.5C 5.5,4.83333 5.5,5.16667 5.5,5.5C 4.5,5.83333 3.83333,6.5 3.5,7.5C 3.15829,8.33825 2.49162,8.67158 1.5,8.5C 1.5,8.16667 1.5,7.83333 1.5,7.5C 2.41511,5.24595 3.74844,3.24595 5.5,1.5 Z"/></g>
<g><path style="opacity:1" fill="#ee8c00" d="M 7.5,2.5 C 8.33825,2.84171 8.67158,3.50838 8.5,4.5C 7.5,4.5 6.5,4.5 5.5,4.5C 5.83333,3.5 6.5,2.83333 7.5,2.5 Z"/></g>
<g><path style="opacity:1" fill="#f6e4d3" d="M 5.5,4.5 C 6.5,4.5 7.5,4.5 8.5,4.5C 8.67158,5.49162 8.33825,6.15829 7.5,6.5C 6.50838,6.67158 5.84171,6.33825 5.5,5.5C 5.5,5.16667 5.5,4.83333 5.5,4.5 Z"/></g>
<g><path style="opacity:1" fill="#f1e6d8" d="M 5.5,5.5 C 5.84171,6.33825 6.50838,6.67158 7.5,6.5C 7.5,6.83333 7.5,7.16667 7.5,7.5C 6.16667,7.5 4.83333,7.5 3.5,7.5C 3.83333,6.5 4.5,5.83333 5.5,5.5 Z"/></g>
<g><path style="opacity:1" fill="#edeeef" d="M 8.5,4.5 C 10.4341,5.11028 12.1007,6.11028 13.5,7.5C 11.5,7.5 9.5,7.5 7.5,7.5C 7.5,7.16667 7.5,6.83333 7.5,6.5C 8.33825,6.15829 8.67158,5.49162 8.5,4.5 Z"/></g>
<g><path style="opacity:1" fill="#e4e6e8" d="M 3.5,7.5 C 4.83333,7.5 6.16667,7.5 7.5,7.5C 9.5,7.5 11.5,7.5 13.5,7.5C 14.1667,7.5 14.5,7.83333 14.5,8.5C 9.72864,8.53764 5.06198,9.2043 0.5,10.5C 0.32842,9.50838 0.661754,8.84171 1.5,8.5C 2.49162,8.67158 3.15829,8.33825 3.5,7.5 Z"/></g>
<g><path style="opacity:1" fill="#d8dcde" d="M 14.5,8.5 C 14.5,9.16667 14.5,9.83333 14.5,10.5C 11.9407,10.1984 9.60737,10.5318 7.5,11.5C 5.16667,11.5 2.83333,11.5 0.5,11.5C 0.5,11.1667 0.5,10.8333 0.5,10.5C 5.06198,9.2043 9.72864,8.53764 14.5,8.5 Z"/></g>
<g><path style="opacity:0.929" fill="#cdd1d4" d="M 0.5,11.5 C 2.83333,11.5 5.16667,11.5 7.5,11.5C 6.5,12.1667 5.5,12.8333 4.5,13.5C 2.6203,13.7709 1.28696,13.1042 0.5,11.5 Z"/></g>
<g><path style="opacity:1" fill="#c9ced1" d="M 14.5,10.5 C 14.5858,11.4959 14.2524,12.3292 13.5,13C 10.5184,13.498 7.51838,13.6646 4.5,13.5C 5.5,12.8333 6.5,12.1667 7.5,11.5C 9.60737,10.5318 11.9407,10.1984 14.5,10.5 Z"/></g>
</svg>
